<svg version="1.1" xmlns="http://www.w3.org/2000/svg" viewBox="0 0 1276.1020041571726 346.6666666666666" width="2552.204008314345" height="693.3333333333331" filter="invert(93%) hue-rotate(180deg)">
  <!-- svg-source:excalidraw -->
  
  <defs>
    <style class="style-fonts">
      @font-face {
        font-family: "Virgil";
        src: url("https://file%2B.vscode-resource.vscode-cdn.net/home/frank/.vscode/extensions/pomdtr.excalidraw-editor-3.7.4/public//dist/excalidraw-assets/Virgil.woff2");
      }
      @font-face {
        font-family: "Cascadia";
        src: url("https://file%2B.vscode-resource.vscode-cdn.net/home/frank/.vscode/extensions/pomdtr.excalidraw-editor-3.7.4/public//dist/excalidraw-assets/Cascadia.woff2");
      }
      @font-face {
        font-family: "Assistant";
        src: url("https://file%2B.vscode-resource.vscode-cdn.net/home/frank/.vscode/extensions/pomdtr.excalidraw-editor-3.7.4/public//dist/excalidraw-assets/Assistant-Regular.woff2");
      }
    </style>
    
  </defs>
  <rect x="0" y="0" width="1276.1020041571726" height="346.6666666666666" fill="#ffffff"></rect><g stroke-linecap="round" transform="translate(493.8888888888889 12) rotate(0 207.05555555555554 162.3333333333333)"><path d="M32 0 C128.55 -0.83, 227.97 -1.38, 382.11 0 M32 0 C149.73 0.36, 268.7 0.69, 382.11 0 M382.11 0 C402.92 0.19, 414.97 12.09, 414.11 32 M382.11 0 C401.2 0.35, 414.78 11.23, 414.11 32 M414.11 32 C415.22 100.17, 417.27 167.03, 414.11 292.67 M414.11 32 C415.49 134.55, 416.02 235.78, 414.11 292.67 M414.11 292.67 C413.47 312.11, 401.52 326.1, 382.11 324.67 M414.11 292.67 C414.05 315.58, 405.42 324.9, 382.11 324.67 M382.11 324.67 C299.64 325.49, 220.87 325.99, 32 324.67 M382.11 324.67 C244.09 323.9, 106.31 324.43, 32 324.67 M32 324.67 C11.48 323.36, 0.93 313.24, 0 292.67 M32 324.67 C8.86 322.84, 0.48 313.95, 0 292.67 M0 292.67 C-2.16 189.5, -2.05 88.83, 0 32 M0 292.67 C-0.11 228.53, 0.22 166.22, 0 32 M0 32 C-0.27 12.36, 11.76 -1.9, 32 0 M0 32 C-0.72 12.75, 9.66 1.05, 32 0" stroke="#1e1e1e" stroke-width="1" fill="none"></path></g><g transform="translate(626 33) rotate(0 71.00991821289062 12.5)"><text x="0" y="0" font-family="Virgil, Segoe UI Emoji" font-size="20px" fill="#1971c2" text-anchor="start" style="white-space: pre;" direction="ltr" dominant-baseline="text-before-edge">Clase 'Animal' </text></g><g stroke-linecap="round" transform="translate(10 10) rotate(0 233.5 101.5)"><path d="M32 0 C181.46 -1.26, 331.1 -0.28, 435 0 M435 0 C457.51 -0.75, 467.26 11.36, 467 32 M467 32 C467.46 81.32, 466.04 128.08, 467 171 M467 171 C465.64 191.21, 457.06 202.46, 435 203 M435 203 C277.88 203.77, 122.26 204.96, 32 203 M32 203 C10.21 202.21, -0.47 193.15, 0 171 M0 171 C0.08 122.77, 3.2 74.96, 0 32 M0 32 C1.65 9.1, 10.41 1.12, 32 0" stroke="#1971c2" stroke-width="1.5" fill="none" stroke-dasharray="8 9"></path></g><g transform="translate(180 28) rotate(0 59.259925842285156 12.5)"><text x="0" y="0" font-family="Virgil, Segoe UI Emoji" font-size="20px" fill="#2f9e44" text-anchor="start" style="white-space: pre;" direction="ltr" dominant-baseline="text-before-edge">Enum Raza </text></g><g transform="translate(25 69.5) rotate(0 106.82422637939453 10)"><text x="0" y="0" font-family="Virgil, Segoe UI Emoji" font-size="16px" fill="#f08c00" text-anchor="start" style="white-space: pre;" direction="ltr" dominant-baseline="text-before-edge">nombre: Nombre de la raza.</text></g><g transform="translate(20 105.5) rotate(0 162.03233337402344 10)"><text x="0" y="0" font-family="Virgil, Segoe UI Emoji" font-size="16px" fill="#f08c00" text-anchor="start" style="white-space: pre;" direction="ltr" dominant-baseline="text-before-edge">descripcion: Descripción breve de la raza.</text></g><g transform="translate(25 136.5) rotate(0 137.72030639648438 10)"><text x="0" y="0" font-family="Virgil, Segoe UI Emoji" font-size="16px" fill="#f08c00" text-anchor="start" style="white-space: pre;" direction="ltr" dominant-baseline="text-before-edge">origen: Lugar de origen de la raza.</text></g><g transform="translate(23 165.5) rotate(0 209.90643310546875 9.5)"><text x="0" y="0" font-family="Virgil, Segoe UI Emoji" font-size="15.200000000000012px" fill="#f08c00" text-anchor="start" style="white-space: pre;" direction="ltr" dominant-baseline="text-before-edge">caracteristicas: Características especiales de la raza.</text></g><g stroke-linecap="round" transform="translate(13.722222222222229 230.5) rotate(0 233.5 52)"><path d="M26 0 C111.44 -1.03, 198.13 -0.91, 441 0 M441 0 C459.68 -0.11, 468.88 10.24, 467 26 M467 26 C467.01 46.28, 467.84 64.91, 467 78 M467 78 C468.11 97.1, 458.12 103.4, 441 104 M441 104 C281.03 105.31, 120.08 104.1, 26 104 M26 104 C9.78 104.74, 0.55 97.17, 0 78 M0 78 C-0.04 65.24, -0.7 53.42, 0 26 M0 26 C-1.62 7.59, 9.77 0.19, 26 0" stroke="#1971c2" stroke-width="1.5" fill="none" stroke-dasharray="8 9"></path></g><g transform="translate(156.0000000000001 239.27777777777777) rotate(0 85.02989196777344 12.5)"><text x="0" y="0" font-family="Virgil, Segoe UI Emoji" font-size="20px" fill="#2f9e44" text-anchor="start" style="white-space: pre;" direction="ltr" dominant-baseline="text-before-edge">Clase Propietario</text></g><g transform="translate(41.50910695393884 274.41372511410424) rotate(0 100.17618560791016 20)"><text x="0" y="0" font-family="Virgil, Segoe UI Emoji" font-size="16px" fill="#f08c00" text-anchor="start" style="white-space: pre;" direction="ltr" dominant-baseline="text-before-edge">nombre: Nombre del dueño</text><text x="0" y="20" font-family="Virgil, Segoe UI Emoji" font-size="16px" fill="#f08c00" text-anchor="start" style="white-space: pre;" direction="ltr" dominant-baseline="text-before-edge">cedula: Cedula del Dueño</text></g><g stroke-linecap="round" transform="translate(920.8888888888889 23.22222222222217) rotate(0 172.55555555555554 65.38888888888889)"><path d="M32 0 C142.57 -0.24, 253.29 0.46, 313.11 0 M313.11 0 C334.57 1.19, 345.07 11.3, 345.11 32 M345.11 32 C343.27 53.49, 343.78 73.38, 345.11 98.78 M345.11 98.78 C344.46 120.83, 333.89 128.95, 313.11 130.78 M313.11 130.78 C255.4 130.94, 195.46 129.09, 32 130.78 M32 130.78 C11.17 132.27, -1.03 119.16, 0 98.78 M0 98.78 C-1.37 73.3, -1.66 46.62, 0 32 M0 32 C0.23 11.38, 10.82 -0.96, 32 0" stroke="#1971c2" stroke-width="1.5" fill="none" stroke-dasharray="8 9"></path></g><g transform="translate(1008 42.38888888888886) rotate(0 96.05988311767578 12.5)"><text x="0" y="0" font-family="Virgil, Segoe UI Emoji" font-size="20px" fill="#2f9e44" text-anchor="start" style="white-space: pre;" direction="ltr" dominant-baseline="text-before-edge">Clase PesoHistorico</text></g><g transform="translate(954.9908930460612 80.83333333333337) rotate(0 139.42984008789057 25)"><text x="0" y="0" font-family="Virgil, Segoe UI Emoji" font-size="20px" fill="#f08c00" text-anchor="start" style="white-space: pre;" direction="ltr" dominant-baseline="text-before-edge">fechaPesaje: fecah del peso</text><text x="0" y="25" font-family="Virgil, Segoe UI Emoji" font-size="20px" fill="#f08c00" text-anchor="start" style="white-space: pre;" direction="ltr" dominant-baseline="text-before-edge">peso: peso del animal</text></g><g transform="translate(507.21311526828345 71.94444444444451) rotate(0 102.23987579345703 12.5)"><text x="0" y="0" font-family="Virgil, Segoe UI Emoji" font-size="20px" fill="#f08c00" text-anchor="start" style="white-space: pre;" direction="ltr" dominant-baseline="text-before-edge"> codigo: id del animal</text></g><g transform="translate(507.21311526828345 106.94444444444451) rotate(0 145.2098388671875 12.5)"><text x="0" y="0" font-family="Virgil, Segoe UI Emoji" font-size="20px" fill="#f08c00" text-anchor="start" style="white-space: pre;" direction="ltr" dominant-baseline="text-before-edge"> pesoActual: peso del Animal </text></g><g transform="translate(507.21311526828345 141.9444444444445) rotate(0 167.20980834960938 12.5)"><text x="0" y="0" font-family="Virgil, Segoe UI Emoji" font-size="20px" fill="#f08c00" text-anchor="start" style="white-space: pre;" direction="ltr" dominant-baseline="text-before-edge"> fechaNacimiento: fecah que nacio</text></g><g transform="translate(507.21311526828345 176.9444444444445) rotate(0 139.4598388671875 12.5)"><text x="0" y="0" font-family="Virgil, Segoe UI Emoji" font-size="20px" fill="#f08c00" text-anchor="start" style="white-space: pre;" direction="ltr" dominant-baseline="text-before-edge"> raza: Raza del Animal     </text></g><g transform="translate(507.21311526828345 211.9444444444445) rotate(0 172.03977966308594 12.5)"><text x="0" y="0" font-family="Virgil, Segoe UI Emoji" font-size="20px" fill="#f08c00" text-anchor="start" style="white-space: pre;" direction="ltr" dominant-baseline="text-before-edge"> propietario: Propietario| del Animal</text></g><g transform="translate(507.21311526828345 246.9444444444445) rotate(0 183.69979858398438 25)"><text x="0" y="0" font-family="Virgil, Segoe UI Emoji" font-size="20px" fill="#f08c00" text-anchor="start" style="white-space: pre;" direction="ltr" dominant-baseline="text-before-edge"> historicoPesos: List&lt;PesoHistorico&gt;: </text><text x="0" y="25" font-family="Virgil, Segoe UI Emoji" font-size="20px" fill="#f08c00" text-anchor="start" style="white-space: pre;" direction="ltr" dominant-baseline="text-before-edge">        Historial del animal</text></g><g stroke-linecap="round" transform="translate(929.4353374905057 176.38888888888906) rotate(0 168.33333333333343 74.44444444444444)"><path d="M32 0 C113.62 1.6, 193.47 0.8, 304.67 0 M304.67 0 C327.09 -1, 335.81 9.86, 336.67 32 M336.67 32 C335.08 60.55, 334.72 86.07, 336.67 116.89 M336.67 116.89 C335.27 138.52, 324.88 146.91, 304.67 148.89 M304.67 148.89 C219.55 150.13, 134.4 149.96, 32 148.89 M32 148.89 C10.46 150.36, 1.54 137.73, 0 116.89 M0 116.89 C-0.03 89.12, -2.39 57.4, 0 32 M0 32 C0.4 9.8, 11.59 1.26, 32 0" stroke="#1971c2" stroke-width="2.5" fill="none" stroke-dasharray="8 10"></path></g><g transform="translate(968.3242263793946 198.61111111111128) rotate(0 130.80984497070307 12.5)"><text x="0" y="0" font-family="Virgil, Segoe UI Emoji" font-size="20px" fill="#2f9e44" text-anchor="start" style="white-space: pre;" direction="ltr" dominant-baseline="text-before-edge">Interfaz PesoActualizable</text></g><g transform="translate(944.9908930460613 264.8593350469123) rotate(0 154.19229125976562 10)"><text x="0" y="0" font-family="Virgil, Segoe UI Emoji" font-size="16px" fill="#f08c00" text-anchor="start" style="white-space: pre;" direction="ltr" dominant-baseline="text-before-edge">void actualizarPeso(double nuevoPeso);</text></g></svg>